ply
format ascii 1.0
element vertex 520
property float x
property float y
property float z
element face 268
property list uchar int vertex_indices
end_header
-20 -0.192915 -17.0105
20 -0.201015 -20.0105
-20 -0.201015 -20.0105
-20 -0.201015 -20.0105
20 -0.201015 -20.0105
-20 -0.192915 -17.0105
20 -0.192915 -17.0105
20 -0.201015 -20.0105
-20 -0.192915 -17.0105
-20 -0.192915 -17.0105
20 -0.201015 -20.0105
20 -0.192915 -17.0105
20 -8.075 -19.9892
-20 -0.192915 -17.0105
-20 -8.06691 -16.9892
20 -0.201015 -20.0105
20 -0.201015 -20.0105
20 -8.075 -19.9892
-20 -0.192915 -17.0105
-20 -8.06691 -16.9892
20 -0.201015 -20.0105
-20 -8.075 -19.9892
-20 -0.201015 -20.0105
20 -8.075 -19.9892
20 -8.075 -19.9892
20 -0.201015 -20.0105
-20 -8.075 -19.9892
-20 -0.201015 -20.0105
-20 -8.06691 -16.9892
-20 -0.201015 -20.0105
-20 -8.075 -19.9892
-20 -0.192915 -17.0105
-20 -0.192915 -17.0105
-20 -8.06691 -16.9892
-20 -0.201015 -20.0105
-20 -8.075 -19.9892
20 -0.201015 -20.0105
20 -8.06691 -16.9892
20 -8.075 -19.9892
20 -0.192915 -17.0105
20 -0.192915 -17.0105
20 -0.201015 -20.0105
20 -8.06691 -16.9892
20 -8.075 -19.9892
-20 -8.06691 -16.9892
-20 -8.075 -19.9892
20 -8.075 -19.9892
20 -8.075 -19.9892
-20 -8.075 -19.9892
-20 -8.06691 -16.9892
-20 -8.06691 -16.9892
20 -8.075 -19.9892
20 -8.06691 -16.9892
20 -8.06691 -16.9892
20 -8.075 -19.9892
-20 -8.06691 -16.9892
-20 -0.192915 -17.0105
-20 -7.967 20.0107
-20 -8.06691 -16.9892
-20 -0.093015 19.9894
-20 -0.101115 16.9894
-20 -0.101115 16.9894
-20 -0.192915 -17.0105
-20 -0.093015 19.9894
-20 -7.967 20.0107
-20 -8.06691 -16.9892
-17 -8.06691 -16.9892
-20 -0.192915 -17.0105
-20 -8.06691 -16.9892
-17 -0.192915 -17.0105
-17 -0.192915 -17.0105
-17 -8.06691 -16.9892
-20 -0.192915 -17.0105
-20 -8.06691 -16.9892
20 -0.192915 -17.0105
17 -8.06691 -16.9892
17 -0.192915 -17.0105
20 -8.06691 -16.9892
20 -8.06691 -16.9892
20 -0.192915 -17.0105
17 -8.06691 -16.9892
17 -0.192915 -17.0105
17.5502 -8.03603 -5.55693
20 -0.192915 -17.0105
20 -8.06691 -16.9892
17 -8.0291 -2.98925
17 -0.155115 -3.01051
17 -0.155115 -3.01051
17 -8.0291 -2.98925
20 -0.192915 -17.0105
17.5502 -8.03603 -5.55693
20 -8.06691 -16.9892
20 -8.0372 -5.98924
20 -0.163215 -6.0105
20 -0.163215 -6.0105
20 -8.0372 -5.98924
-20 -0.093015 19.9894
20 -0.101115 16.9894
-20 -0.101115 16.9894
-20 -0.101115 16.9894
20 -0.101115 16.9894
-20 -0.093015 19.9894
20 -7.967 20.0107
-20 -0.093015 19.9894
-20 -7.967 20.0107
20 -0.093015 19.9894
20 -0.093015 19.9894
20 -7.967 20.0107
-20 -0.093015 19.9894
-20 -7.967 20.0107
20 -0.101115 16.9894
-20 -7.967 20.0107
-20 -0.093015 19.9894
20 -7.9751 17.0107
20 -7.9751 17.0107
20 -0.101115 16.9894
-20 -7.967 20.0107
-20 -0.093015 19.9894
-20 -7.967 20.0107
-17 -7.9751 17.0107
20 -7.9751 17.0107
-20 -8.06691 -16.9892
-17 -8.06691 -16.9892
-20 -7.967 20.0107
-17 -7.9751 17.0107
-20 -8.06691 -16.9892
-17 -8.06691 -16.9892
20 -7.9751 17.0107
17 -8.06691 -16.9892
17 -0.192915 -17.0105
17 -0.192915 -17.0105
17 -8.06691 -16.9892
-17 -7.9751 17.0107
-17 -0.192915 -17.0105
-17 -8.06691 -16.9892
-17 -0.101115 16.9894
-17 -0.101115 16.9894
-17 -7.9751 17.0107
-17 -0.192915 -17.0105
-17 -8.06691 -16.9892
17 -0.155115 -3.01051
20 -0.192915 -17.0105
17 -0.192915 -17.0105
17 -0.192915 -17.0105
20 -0.192915 -17.0105
17 -0.155115 -3.01051
17.5502 -8.03603 -5.55693
17 -8.06691 -16.9892
20 -8.06691 -16.9892
17 -8.0372 -5.98924
17 -8.03578 -5.45983
17 -8.03578 -5.45983
17.5502 -8.03603 -5.55693
17 -8.0372 -5.98924
17 -8.06691 -16.9892
20 -8.06691 -16.9892
17 -8.0372 -5.98924
17 -0.192915 -17.0105
17 -8.06691 -16.9892
17 -8.03578 -5.45983
17 -8.0291 -2.98925
17 -0.155115 -3.01051
17 -0.155115 -3.01051
17 -8.0291 -2.98925
17 -0.192915 -17.0105
17 -8.03578 -5.45983
17 -8.0372 -5.98924
17 -8.06691 -16.9892
20 -8.0291 -2.98925
17.5502 -8.03603 -5.55693
20 -8.0372 -5.98924
17 -8.0291 -2.98925
17 -8.0291 -2.98925
20 -8.0291 -2.98925
17.5502 -8.03603 -5.55693
20 -8.0372 -5.98924
20 -8.0291 -2.98925
17 -0.155115 -3.01051
17 -8.0291 -2.98925
20 -0.155115 -3.01051
20 -0.155115 -3.01051
20 -8.0291 -2.98925
17 -0.155115 -3.01051
17 -8.0291 -2.98925
17 -8.0291 -2.98925
3 -0.155115 -3.01051
3 -8.0291 -2.98925
17 -0.155115 -3.01051
17 -0.155115 -3.01051
17 -8.0291 -2.98925
3 -0.155115 -3.01051
3 -8.0291 -2.98925
20 -0.155115 -3.01051
20 -0.192915 -17.0105
17 -0.155115 -3.01051
17 -0.155115 -3.01051
20 -0.192915 -17.0105
20 -0.155115 -3.01051
17.5502 -8.03603 -5.55693
20 -8.06691 -16.9892
20 -8.0372 -5.98924
20 -8.0372 -5.98924
20 -8.06691 -16.9892
17.5502 -8.03603 -5.55693
20 -8.0291 -2.98925
20 -0.155115 -3.01051
20 -0.155115 -3.01051
20 -8.0291 -2.98925
20 -0.163215 -6.0105
3 -8.0291 -2.98925
3 -0.155115 -3.01051
17.5502 -8.03603 -5.55693
20 -8.0372 -5.98924
20 -8.0372 -5.98924
20 -0.163215 -6.0105
17.5502 -8.03603 -5.55693
3 -8.0291 -2.98925
3 -0.155115 -3.01051
20 -0.163215 -6.0105
3 -8.0372 -5.98924
3 -0.163215 -6.0105
20 -8.0372 -5.98924
20 -8.0372 -5.98924
20 -0.163215 -6.0105
3 -8.0372 -5.98924
3 -0.163215 -6.0105
20 -0.093015 19.9894
20 -0.101115 16.9894
-20 -0.093015 19.9894
-20 -0.093015 19.9894
20 -0.101115 16.9894
20 -0.093015 19.9894
-20 -7.967 20.0107
20 -7.9751 17.0107
20 -7.967 20.0107
20 -7.967 20.0107
20 -7.9751 17.0107
-20 -7.967 20.0107
20 -0.101115 16.9894
20 -7.967 20.0107
20 -7.9751 17.0107
20 -0.093015 19.9894
20 -0.093015 19.9894
20 -0.101115 16.9894
20 -7.967 20.0107
20 -7.9751 17.0107
20 -0.101115 16.9894
17 -7.9751 17.0107
17 -0.101115 16.9894
20 -7.9751 17.0107
20 -7.9751 17.0107
20 -0.101115 16.9894
17 -7.9751 17.0107
17 -0.101115 16.9894
20 -7.9751 17.0107
20 -0.130815 5.98946
20 -8.00481 6.01072
20 -0.101115 16.9894
20 -0.101115 16.9894
20 -7.9751 17.0107
20 -0.130815 5.98946
20 -8.00481 6.01072
-17 -7.9751 17.0107
-17 -0.101115 16.9894
-17 -7.9751 17.0107
-17 -0.101115 16.9894
17 -8.03578 -5.45983
3 -8.0372 -5.98924
17 -8.0372 -5.98924
3 -8.0291 -2.98925
17 -8.0291 -2.98925
17 -8.0291 -2.98925
17 -8.03578 -5.45983
3 -8.0291 -2.98925
3 -8.0372 -5.98924
17 -8.0372 -5.98924
3 -8.0291 -2.98925
3 -0.163215 -6.0105
3 -8.0372 -5.98924
3 -0.155115 -3.01051
3 -0.155115 -3.01051
3 -8.0291 -2.98925
3 -0.163215 -6.0105
3 -8.0372 -5.98924
20 -0.155115 -3.01051
20 -0.163215 -6.0105
3 -0.155115 -3.01051
3 -0.155115 -3.01051
20 -0.163215 -6.0105
20 -0.155115 -3.01051
3 -0.155115 -3.01051
20 -0.163215 -6.0105
3 -0.163215 -6.0105
3 -0.163215 -6.0105
20 -0.163215 -6.0105
3 -0.155115 -3.01051
17 -7.9751 17.0107
19.3571 -8.00481 6.01072
17 -8.00481 6.01072
20 -8.00481 6.01072
20 -7.9751 17.0107
20 -7.9751 17.0107
17 -7.9751 17.0107
20 -8.00481 6.01072
19.3571 -8.00481 6.01072
17 -8.00481 6.01072
17 -0.130815 5.98946
17 -7.9751 17.0107
17 -8.00481 6.01072
17 -0.101115 16.9894
17 -0.101115 16.9894
17 -0.130815 5.98946
17 -7.9751 17.0107
17 -8.00481 6.01072
20 -0.130815 5.98946
19.3571 -8.00481 6.01072
19.3571 -0.130815 5.98946
20 -8.00481 6.01072
20 -8.00481 6.01072
20 -0.130815 5.98946
19.3571 -8.00481 6.01072
19.3571 -0.130815 5.98946
20 -0.138915 2.98947
20 -8.00481 6.01072
20 -8.01291 3.01073
20 -0.130815 5.98946
20 -0.130815 5.98946
20 -0.138915 2.98947
20 -8.00481 6.01072
20 -8.01291 3.01073
17 -0.130815 5.98946
3 -8.00481 6.01072
3 -0.130815 5.98946
17 -8.00481 6.01072
17 -8.00481 6.01072
17 -0.130815 5.98946
3 -8.00481 6.01072
3 -0.130815 5.98946
20 -0.130815 5.98946
20 -0.138915 2.98947
19.3571 -0.130815 5.98946
19.3571 -0.130815 5.98946
20 -0.138915 2.98947
20 -0.130815 5.98946
19.3571 -8.00481 6.01072
20 -0.138915 2.98947
20 -8.01291 3.01073
19.3571 -0.130815 5.98946
19.3571 -0.130815 5.98946
19.3571 -8.00481 6.01072
20 -0.138915 2.98947
20 -8.01291 3.01073
20 -8.01291 3.01073
17 -0.137485 3.51888
17 -8.01147 3.54014
20 -0.138915 2.98947
20 -0.138915 2.98947
20 -8.01291 3.01073
17 -0.137485 3.51888
17 -8.01147 3.54014
20 -0.138915 2.98947
17 -8.01291 3.01073
17 -0.138915 2.98947
20 -8.01291 3.01073
20 -8.01291 3.01073
20 -0.138915 2.98947
17 -8.01291 3.01073
17 -0.138915 2.98947
3 -0.138915 2.98947
3 -8.00481 6.01072
3 -8.01291 3.01073
3 -0.130815 5.98946
3 -0.130815 5.98946
3 -0.138915 2.98947
3 -8.00481 6.01072
3 -8.01291 3.01073
3 -8.00481 6.01072
17 -8.01291 3.01073
3 -8.01291 3.01073
17 -8.01147 3.54014
19.3571 -8.00481 6.01072
20 -8.01291 3.01073
3 -8.00481 6.01072
17 -8.01147 3.54014
19.3571 -8.00481 6.01072
20 -8.01291 3.01073
17 -8.01291 3.01073
3 -8.01291 3.01073
17 -0.137485 3.51888
20 -0.138915 2.98947
17 -0.138915 2.98947
17 -0.138915 2.98947
20 -0.138915 2.98947
17 -0.137485 3.51888
17 -8.01147 3.54014
17 -0.138915 2.98947
17 -8.01291 3.01073
17 -0.137485 3.51888
17 -0.137485 3.51888
17 -8.01147 3.54014
17 -0.138915 2.98947
17 -8.01291 3.01073
17 -8.01291 3.01073
3 -0.138915 2.98947
3 -8.01291 3.01073
17 -0.138915 2.98947
17 -0.138915 2.98947
17 -8.01291 3.01073
3 -0.138915 2.98947
3 -8.01291 3.01073
55 0.001485 54.9893
55 -0.012015 49.9893
-55 0.001485 54.9893
-55 0.001485 54.9893
55 -0.012015 49.9893
55 0.001485 54.9893
55 -7.8725 55.0105
-55 0.001485 54.9893
-55 -7.8725 55.0105
55 0.001485 54.9893
55 0.001485 54.9893
55 -7.8725 55.0105
-55 0.001485 54.9893
-55 -7.8725 55.0105
55 -7.8725 55.0105
-55 -7.886 50.0106
55 -7.886 50.0106
-55 -7.8725 55.0105
-55 -7.8725 55.0105
55 -7.8725 55.0105
-55 -7.886 50.0106
55 -7.886 50.0106
55 -7.886 50.0106
55 -0.295515 -55.0103
55 -8.1695 -54.9891
55 -7.8725 55.0105
55 0.001485 54.9893
55 0.001485 54.9893
55 -7.8725 55.0105
55 -0.295515 -55.0103
55 -7.886 50.0106
55 -8.1695 -54.9891
-55 -0.295515 -55.0103
-55 -7.886 50.0106
-55 -8.1695 -54.9891
-55 -7.8725 55.0105
-55 0.001485 54.9893
-55 0.001485 54.9893
-55 -0.295515 -55.0103
-55 -7.8725 55.0105
-55 -7.886 50.0106
-55 -8.1695 -54.9891
55 -8.1695 -54.9891
-55 -0.295515 -55.0103
-55 -8.1695 -54.9891
55 -0.295515 -55.0103
55 -0.295515 -55.0103
55 -8.1695 -54.9891
-55 -0.295515 -55.0103
-55 -8.1695 -54.9891
-55 -8.1695 -54.9891
-50 -8.156 -49.9891
55 -8.1695 -54.9891
-55 -7.886 50.0106
-50 -7.886 50.0106
50 -8.156 -49.9891
55 -7.886 50.0106
50 -7.886 50.0106
50 -7.886 50.0106
50 -8.156 -49.9891
55 -7.886 50.0106
-50 -8.156 -49.9891
55 -8.1695 -54.9891
-50 -7.886 50.0106
-55 -7.886 50.0106
-55 -8.1695 -54.9891
-50 -7.886 50.0106
-50 -0.282015 -50.0103
-50 -8.156 -49.9891
-50 -0.012015 49.9893
-50 -0.012015 49.9893
-50 -7.886 50.0106
-50 -0.282015 -50.0103
-50 -8.156 -49.9891
50 -0.282015 -50.0103
-50 -8.156 -49.9891
-50 -0.282015 -50.0103
50 -8.156 -49.9891
50 -8.156 -49.9891
50 -0.282015 -50.0103
-50 -8.156 -49.9891
-50 -0.282015 -50.0103
50 -0.282015 -50.0103
50 -7.886 50.0106
50 -8.156 -49.9891
50 -0.012015 49.9893
50 -0.012015 49.9893
50 -0.282015 -50.0103
50 -7.886 50.0106
50 -8.156 -49.9891
50 -7.886 50.0106
-50 -0.012015 49.9893
-50 -7.886 50.0106
50 -0.012015 49.9893
50 -0.012015 49.9893
50 -7.886 50.0106
-50 -0.012015 49.9893
-50 -7.886 50.0106
-55 0 55.01
55 0 55.01
55 0 -55.01
-55 0 55.01
55 0 -55.01
-55 0 -55.01
-55 -8.17 55.01
55 -8.17 -55.01
55 -8.17 55.01
-55 -8.17 55.01
-55 -8.17 -55.01
55 -8.17 -55.01
3 0 1 2
3 3 4 5
3 6 7 8
3 9 10 11
3 12 13 14
3 13 12 15
3 16 17 18
3 19 18 17
3 20 21 22
3 21 20 23
3 24 25 26
3 27 26 25
3 28 29 30
3 29 28 31
3 32 33 34
3 35 34 33
3 36 37 38
3 37 36 39
3 40 41 42
3 43 42 41
3 44 45 46
3 47 48 49
3 50 51 52
3 53 54 55
3 56 57 58
3 57 56 59
3 59 56 60
3 61 62 63
3 63 62 64
3 65 64 62
3 66 67 68
3 67 66 69
3 70 71 72
3 73 72 71
3 74 75 76
3 75 74 77
3 78 79 80
3 81 80 79
3 82 83 84
3 83 82 85
3 83 85 86
3 87 88 89
3 88 90 89
3 91 89 90
3 39 92 37
3 92 39 93
3 94 40 95
3 42 95 40
3 96 97 98
3 99 100 101
3 102 103 104
3 103 102 105
3 106 107 108
3 109 108 107
3 110 111 112
3 111 110 113
3 114 115 116
3 117 116 115
3 118 119 120
3 119 121 122
3 121 119 118
3 123 124 125
3 126 125 124
3 127 124 123
3 128 69 66
3 69 128 129
3 130 131 70
3 71 70 131
3 132 133 134
3 133 132 135
3 136 137 138
3 139 138 137
3 140 141 142
3 143 144 145
3 146 147 148
3 147 146 149
3 149 146 150
3 151 152 153
3 153 152 154
3 155 154 152
3 156 157 158
3 157 156 159
3 157 159 160
3 157 160 161
3 162 163 164
3 163 165 164
3 165 166 164
3 167 164 166
3 168 169 170
3 169 168 171
3 172 173 174
3 175 174 173
3 176 177 178
3 177 176 179
3 180 181 182
3 183 182 181
3 184 185 186
3 185 184 187
3 188 189 190
3 191 190 189
3 192 193 194
3 195 196 197
3 198 199 200
3 201 202 203
3 93 204 92
3 204 93 205
3 206 94 207
3 95 207 94
3 208 209 210
3 209 208 211
3 211 208 212
3 213 214 215
3 215 214 216
3 217 216 214
3 218 219 220
3 219 218 221
3 222 223 224
3 225 224 223
3 226 227 228
3 229 230 231
3 232 233 234
3 235 236 237
3 238 239 240
3 239 238 241
3 242 243 244
3 245 244 243
3 246 247 248
3 247 246 249
3 250 251 252
3 253 252 251
3 254 255 256
3 255 254 257
3 258 259 260
3 261 260 259
3 248 262 263
3 262 248 247
3 252 253 264
3 265 264 253
3 266 267 268
3 267 266 269
3 269 266 270
3 271 272 273
3 273 272 274
3 275 274 272
3 276 277 278
3 277 276 279
3 280 281 282
3 283 282 281
3 284 285 286
3 287 288 289
3 290 291 292
3 293 294 295
3 296 297 298
3 297 296 299
3 299 296 300
3 301 302 303
3 303 302 304
3 305 304 302
3 306 307 308
3 307 306 309
3 310 311 312
3 313 312 311
3 314 315 316
3 315 314 317
3 318 319 320
3 321 320 319
3 322 323 324
3 323 322 325
3 326 327 328
3 329 328 327
3 330 331 332
3 331 330 333
3 334 335 336
3 337 336 335
3 338 339 340
3 341 342 343
3 344 345 346
3 345 344 347
3 348 349 350
3 351 350 349
3 352 353 354
3 353 352 355
3 356 357 358
3 359 358 357
3 360 361 362
3 361 360 363
3 364 365 366
3 367 366 365
3 368 369 370
3 369 368 371
3 372 373 374
3 375 374 373
3 376 377 378
3 377 376 379
3 379 380 381
3 380 379 376
3 382 383 384
3 385 384 383
3 383 382 386
3 387 386 382
3 388 389 390
3 391 392 393
3 394 395 396
3 395 394 397
3 398 399 400
3 401 400 399
3 402 403 404
3 403 402 405
3 406 407 408
3 409 408 407
3 410 411 412
3 413 414 415
3 416 417 418
3 417 416 419
3 420 421 422
3 423 422 421
3 424 425 426
3 425 424 427
3 428 429 430
3 431 430 429
3 432 433 434
3 433 432 435
3 433 435 436
3 437 438 439
3 438 440 439
3 441 439 440
3 442 443 444
3 443 442 445
3 445 442 446
3 447 448 449
3 449 448 450
3 451 450 448
3 452 453 454
3 453 452 455
3 456 457 458
3 459 458 457
3 460 461 462
3 461 460 463
3 461 463 464
3 462 465 466
3 465 462 461
3 466 465 467
3 468 469 470
3 471 472 469
3 470 469 472
3 473 474 471
3 474 475 471
3 472 471 475
3 476 477 478
3 477 476 479
3 480 481 482
3 483 482 481
3 484 485 486
3 485 484 487
3 488 489 490
3 491 490 489
3 492 493 494
3 493 492 495
3 496 497 498
3 499 498 497
3 500 501 502
3 501 500 503
3 504 505 506
3 507 506 505
3 508 509 510
3 511 512 513
3 514 515 516
3 517 518 519
